<?xml version="1.0" encoding="UTF-8" standalone="no"?>
<!DOCTYPE svg PUBLIC "-//W3C//DTD SVG 20010904//EN" "http://www.w3.org/TR/2001/REC-SVG-20010904/DTD/svg10.dtd">
<svg version="1.0" xmlns="http://www.w3.org/2000/svg" width="1167.000000pt" height="369.000000pt" viewBox="0 0 1167.000000 369.000000" preserveAspectRatio="xMidYMid meet">
<metadata>
Created by potrace 1.15, written by Peter Selinger 2001-2017
</metadata>
<g transform="translate(0.000000,369.000000) scale(0.100000,-0.100000)" fill="#000000" stroke="none">
<path d="M0 1845 l0 -1845 5835 0 5835 0 0 1845 0 1845 -5835 0 -5835 0 0 -1845z m2533 753 c-2 -310 -8 -626 -13 -703 -36 -464 -184 -784 -462 -996 -115 -88 -309 -213 -420 -270 l-99 -50 -87 47 c-436 237 -692 488 -802 787 -96 261 -125 670 -103 1490 l6 257 991 0 991 0 -2 -562z m3587 -15 l5 -573 75 67 c200 176 230 209 230 251 0 24 -48 62 -80 62 -25 0 -30 4 -30 25 l0 25 251 0 250 0 -3 -22 c-3 -20 -10 -24 -68 -29 -75 -7 -105 -18 -164 -58 -34 -24 -215 -180 -286 -247 -13 -12 14 -43 205 -234 219 -219 272 -261 348 -275 30 -6 37 -11 37 -31 l0 -24 -150 0 -151 0 -157 153 c-86 84 -192 186 -235 227 l-78 75 3 -177 c4 -207 6 -214 96 -225 46 -5 52 -8 52 -29 l0 -24 -245 0 -245 0 0 24 c0 21 6 24 49 30 27 4 60 15 73 25 l23 19 3 701 c1 468 -1 708 -8 721 -11 21 -67 40 -117 40 -28 0 -33 3 -33 25 0 19 5 25 23 26 12 0 83 6 157 14 74 7 142 12 150 11 13 -1 16 -75 20 -573z m1082 172 l3 -406 35 27 c251 190 602 61 675 -247 47 -200 -34 -398 -209 -515 -121 -80 -329 -117 -531 -95 -61 6 -121 14 -133 18 l-21 5 -3 742 c-2 574 -6 746 -16 763 -13 24 -67 43 -119 43 -33 0 -41 12 -25 37 7 10 168 28 289 32 l53 1 2 -405z m3133 -173 c0 -314 2 -572 4 -572 1 0 62 52 135 116 119 105 176 170 176 200 0 25 -38 57 -76 63 -30 5 -40 11 -42 29 l-3 22 256 0 256 0 -3 -22 c-3 -21 -10 -24 -76 -30 -59 -5 -84 -13 -128 -40 -54 -34 -324 -264 -324 -277 0 -16 458 -459 490 -473 19 -9 52 -19 73 -23 30 -6 37 -11 37 -31 l0 -24 -151 0 -150 0 -167 162 c-92 89 -197 192 -234 227 l-68 65 0 -171 c0 -164 1 -173 23 -198 16 -19 35 -27 75 -32 47 -5 53 -8 50 -27 -3 -21 -8 -21 -245 -24 l-243 -2 0 24 c0 21 6 24 49 30 27 4 60 15 73 25 l23 19 3 701 c1 468 -1 708 -8 721 -11 21 -67 40 -117 40 -28 0 -33 4 -33 24 0 23 4 25 73 31 39 3 110 10 157 14 47 5 92 8 100 7 13 -1 15 -72 15 -574z m-6540 546 c136 -41 208 -95 257 -196 59 -120 50 -285 -21 -393 -38 -57 -125 -122 -194 -145 l-52 -17 50 -17 c133 -45 247 -136 294 -233 76 -158 37 -372 -92 -494 -104 -99 -190 -113 -679 -113 l-348 0 0 25 c0 19 5 25 23 25 38 0 83 35 105 83 35 75 42 186 42 677 0 474 -8 618 -35 683 -21 52 -63 87 -102 87 -29 0 -33 3 -33 26 l0 26 368 -5 c289 -3 378 -7 417 -19z m709 -135 c-19 -44 -12 -102 17 -149 22 -37 90 -74 134 -74 l29 0 -28 -29 c-73 -76 -208 -55 -256 40 -24 47 -26 119 -4 166 18 36 77 83 106 83 16 0 16 -3 2 -37z m158 -957 l3 -418 23 -19 c13 -10 46 -21 73 -25 43 -6 49 -9 49 -30 l0 -24 -250 0 -250 0 0 25 c0 23 4 25 40 25 22 0 56 6 75 14 54 23 57 47 53 419 l-3 329 -28 24 c-22 19 -39 24 -83 24 -51 0 -54 1 -54 25 0 14 1 25 3 26 14 6 334 34 339 30 4 -4 9 -195 10 -425z m640 339 l3 -94 75 60 c92 74 163 116 209 124 40 6 162 -26 178 -48 7 -8 -1 -40 -25 -99 l-34 -87 -71 35 c-126 64 -194 58 -294 -23 l-43 -34 0 -267 c0 -154 5 -283 11 -304 12 -44 49 -68 104 -68 31 0 35 -3 35 -25 l0 -25 -245 0 -245 0 0 24 c0 21 5 24 51 28 34 4 58 12 72 27 22 21 22 28 25 368 3 356 0 393 -36 409 -10 4 -44 10 -77 13 -53 5 -60 9 -63 29 -2 16 2 22 15 23 10 0 83 6 163 13 80 8 155 14 167 15 21 1 22 -3 25 -94z m3299 85 c174 -33 315 -174 322 -321 l2 -54 -337 -3 -337 -2 5 -68 c11 -136 46 -232 111 -313 149 -182 325 -186 502 -11 l71 69 0 -36 c0 -68 -142 -183 -260 -210 -108 -25 -262 -6 -362 45 -67 34 -157 120 -191 182 -151 278 8 652 306 717 78 17 101 18 168 5z m1146 -22 l83 -22 29 22 c17 12 39 22 51 22 19 0 20 -6 20 -161 0 -143 -2 -160 -16 -157 -19 3 -22 9 -57 89 -75 172 -283 237 -434 136 -96 -64 -145 -176 -145 -331 0 -197 88 -364 228 -432 47 -23 63 -26 131 -23 99 5 168 37 255 120 35 32 64 59 66 59 1 0 2 -15 2 -33 0 -26 -10 -43 -51 -84 -162 -163 -440 -190 -632 -61 -227 153 -247 537 -37 746 133 133 289 167 507 110z m-4009 -1440 c20 0 22 -5 22 -54 0 -30 -3 -54 -7 -54 -5 0 -17 17 -28 37 -25 47 -65 64 -103 42 -32 -18 -41 -62 -18 -88 9 -10 46 -38 81 -62 80 -53 110 -105 95 -159 -20 -71 -87 -110 -159 -90 -22 6 -52 8 -66 4 l-26 -6 3 62 c3 73 20 87 36 32 16 -52 58 -74 115 -59 35 10 51 47 35 83 -7 15 -45 49 -86 76 -77 52 -92 74 -92 136 0 71 60 118 135 106 22 -3 50 -6 63 -6z m1740 0 c68 -17 136 -87 151 -157 35 -166 -101 -305 -266 -271 -133 28 -211 182 -154 305 25 54 79 104 132 120 56 17 79 18 137 3z m1551 -17 c155 -80 152 -315 -6 -392 -150 -73 -324 33 -323 198 1 164 180 270 329 194z m1516 -4 c60 -34 98 -94 103 -167 6 -79 -16 -137 -72 -188 -142 -131 -366 -27 -366 169 0 167 184 269 335 186z m-7398 8 c2 -6 -7 -15 -19 -20 -22 -9 -23 -16 -26 -130 -4 -143 2 -178 30 -205 38 -35 129 -21 160 24 4 6 8 78 8 159 0 142 -1 149 -20 154 -45 12 -11 28 63 31 64 2 77 0 77 -13 0 -8 -7 -15 -15 -15 -26 0 -35 -46 -35 -185 0 -139 9 -185 35 -185 8 0 15 -7 15 -15 0 -13 -11 -15 -57 -13 -48 2 -58 6 -57 21 2 21 6 21 -41 -3 -46 -24 -124 -26 -164 -6 -58 30 -66 56 -69 223 -3 139 -5 153 -23 158 -10 4 -19 13 -19 21 0 12 14 14 77 12 42 -2 78 -8 80 -13z m578 -138 l120 -152 3 118 c3 119 -5 157 -33 157 -8 0 -15 6 -15 14 0 19 131 17 138 -1 2 -8 -5 -13 -17 -13 -34 0 -41 -38 -41 -226 0 -97 -4 -174 -9 -174 -5 0 -71 77 -148 172 l-138 171 -3 -109 c-4 -152 3 -192 34 -200 46 -12 19 -29 -49 -32 -55 -2 -67 0 -67 13 0 8 7 15 15 15 28 0 35 39 35 189 0 123 -3 152 -16 165 -8 9 -22 16 -30 16 -8 0 -14 7 -14 15 0 12 13 15 58 15 l57 0 120 -153z m443 136 c2 -7 -3 -13 -12 -13 -29 0 -36 -38 -36 -185 0 -147 7 -185 36 -185 9 0 14 -6 12 -12 -6 -19 -158 -24 -158 -6 0 7 9 19 20 26 19 11 20 23 20 183 0 162 -1 171 -20 176 -11 3 -20 12 -20 20 0 19 151 15 158 -4z m212 6 c0 -7 -8 -17 -17 -24 -15 -11 -13 -23 32 -145 42 -114 50 -129 58 -109 86 225 94 259 61 259 -8 0 -14 7 -14 15 0 12 14 15 65 15 50 0 65 -3 65 -14 0 -8 -9 -17 -19 -21 -23 -7 -47 -54 -94 -185 -66 -181 -78 -210 -90 -210 -7 0 -43 83 -81 185 -66 175 -87 215 -114 215 -7 0 -12 7 -12 15 0 12 16 15 80 15 53 0 80 -4 80 -11z m603 -26 c4 -20 4 -40 1 -45 -8 -13 -24 -9 -24 6 0 28 -42 46 -107 46 l-63 0 0 -85 0 -85 54 0 c64 0 86 7 86 26 0 8 7 14 15 14 12 0 15 -13 15 -55 0 -59 -14 -72 -38 -35 -10 16 -23 20 -72 20 l-61 0 3 -82 3 -83 45 -3 c63 -5 114 12 128 43 12 26 32 34 32 13 0 -7 -5 -30 -11 -51 l-10 -38 -151 3 c-148 3 -184 12 -136 33 22 10 23 15 26 165 3 177 0 200 -28 200 -20 0 -26 11 -13 23 3 4 72 7 153 7 l147 0 6 -37z m319 27 c86 -24 120 -132 58 -184 l-31 -25 55 -85 c30 -47 64 -87 76 -91 35 -11 17 -30 -33 -33 l-47 -3 -38 62 c-58 96 -89 129 -123 129 -29 0 -29 0 -29 -61 0 -66 12 -99 36 -99 9 0 14 -6 12 -12 -6 -19 -158 -24 -158 -6 0 7 9 19 20 26 19 11 20 23 20 183 0 162 -1 171 -20 176 -11 3 -20 12 -20 19 0 11 20 14 93 14 50 0 109 -5 129 -10z m718 -4 c0 -7 -9 -16 -20 -19 -19 -5 -20 -14 -20 -180 0 -167 1 -176 20 -182 11 -3 20 -12 20 -19 0 -10 -21 -14 -80 -15 -66 -1 -80 1 -80 14 0 8 7 15 15 15 28 0 35 39 35 185 0 146 -7 185 -35 185 -8 0 -15 7 -15 15 0 12 16 15 80 15 61 0 80 -3 80 -14z m440 -36 c0 -27 -4 -50 -10 -50 -5 0 -10 5 -10 10 0 27 -41 50 -90 50 l-50 0 0 -161 c0 -161 7 -199 36 -199 9 0 14 -6 12 -12 -3 -9 -31 -14 -81 -16 -64 -2 -77 0 -77 13 0 8 7 15 15 15 27 0 35 47 35 206 l0 154 -47 0 c-54 0 -65 -5 -82 -38 -17 -33 -31 -18 -31 34 l0 44 190 0 190 0 0 -50z m208 33 c2 -8 -5 -13 -17 -13 -29 0 -27 -13 16 -82 41 -67 38 -68 91 21 25 42 25 44 7 57 -29 22 -5 36 55 32 56 -3 77 -21 38 -32 -15 -3 -44 -38 -81 -95 l-58 -88 3 -84 c3 -76 5 -85 26 -94 41 -18 16 -30 -63 -30 -51 0 -80 4 -82 12 -2 6 6 13 19 15 22 3 23 8 26 95 l3 91 -56 86 c-38 58 -64 88 -81 92 -24 6 -30 15 -17 28 13 12 166 2 171 -11z m1312 -28 c0 -25 -4 -45 -10 -45 -5 0 -10 5 -10 10 0 6 -9 19 -20 30 -16 16 -33 20 -80 20 l-60 0 0 -80 0 -80 64 0 c56 0 66 3 71 20 3 11 12 20 19 20 15 0 22 -115 8 -124 -6 -3 -17 5 -26 19 -15 22 -24 25 -76 25 l-60 0 0 -59 c0 -69 13 -111 35 -111 8 0 15 -7 15 -15 0 -12 -16 -15 -80 -15 -83 0 -102 12 -60 38 19 11 20 23 20 183 0 162 -1 171 -20 176 -11 3 -20 12 -20 19 0 11 28 14 145 14 l145 0 0 -45z m500 30 c0 -8 -6 -15 -14 -15 -23 0 -26 -24 -26 -196 l0 -165 83 3 c82 3 82 3 96 36 8 17 21 32 28 32 16 0 16 4 -3 -59 l-15 -52 -151 3 c-110 2 -152 6 -156 16 -2 6 3 12 12 12 8 0 20 9 26 19 11 21 14 308 4 335 -3 9 -15 16 -25 16 -19 0 -25 11 -12 23 3 4 39 7 80 7 58 0 73 -3 73 -15z m955 -140 l120 -150 3 111 c3 116 -7 164 -33 164 -8 0 -15 7 -15 15 0 13 12 15 67 13 42 -2 68 -8 71 -15 2 -8 -5 -13 -17 -13 -35 0 -41 -31 -41 -219 0 -107 -4 -181 -9 -181 -6 0 -69 73 -141 163 -73 89 -136 164 -141 165 -5 2 -9 -54 -9 -131 0 -141 7 -167 47 -167 8 0 13 -6 11 -12 -3 -8 -29 -14 -71 -16 -55 -2 -67 0 -67 13 0 8 7 15 15 15 26 0 35 47 35 188 0 142 -10 182 -46 182 -8 0 -14 7 -14 15 0 13 11 15 57 13 l57 -3 121 -150z m582 127 c165 -86 156 -324 -14 -383 -24 -9 -86 -14 -167 -14 -128 0 -162 9 -114 30 23 10 23 13 23 179 0 179 2 169 -44 193 -1 1 0 7 4 13 5 9 45 11 139 8 110 -3 138 -8 173 -26z m909 -123 l119 -150 3 113 c3 134 -1 158 -29 158 -12 0 -19 5 -17 13 6 18 138 23 138 5 0 -7 -10 -18 -22 -23 -23 -10 -23 -14 -26 -202 -2 -150 -5 -193 -15 -193 -8 0 -75 77 -150 172 l-138 171 3 -149 c3 -144 4 -149 26 -159 12 -5 22 -16 22 -23 0 -10 -17 -12 -67 -10 -69 3 -89 16 -51 33 22 10 23 15 26 178 l2 167 -27 12 c-37 16 -36 15 -28 27 3 6 30 11 59 11 l53 0 119 -151z"/>
<path d="M600 2650 l0 -450 935 0 935 0 0 313 c0 173 3 375 7 450 l6 137 -941 0 -942 0 0 -450z m865 396 c77 -1 155 2 172 8 18 5 35 7 38 4 4 -3 -1 -23 -11 -44 -10 -24 -16 -61 -15 -94 3 -76 -17 -95 -100 -93 -45 2 -61 -2 -66 -13 -5 -13 -8 -13 -24 2 -13 12 -28 15 -53 10 -22 -4 -48 -1 -70 8 -28 12 -36 22 -42 50 -3 20 -3 47 0 61 4 15 0 37 -9 55 -24 46 -20 64 13 55 15 -4 90 -8 167 -9z m-160 -263 c9 -12 32 -18 81 -21 38 -2 75 -9 82 -14 8 -7 12 -7 12 1 0 7 24 11 68 11 44 0 75 5 88 15 28 21 40 19 78 -21 35 -36 86 -146 86 -186 0 -20 -3 -21 -62 -14 -41 4 -86 17 -128 38 -36 18 -68 35 -72 36 -20 9 -5 -22 28 -58 45 -50 123 -80 205 -80 l60 0 25 -55 c34 -78 33 -82 -28 -87 -68 -5 -74 -3 -88 35 -19 51 -26 62 -44 65 -11 3 -14 -1 -10 -13 4 -9 1 -20 -5 -25 -10 -6 -10 -12 0 -28 10 -16 10 -23 0 -36 -18 -21 -8 -32 35 -39 39 -6 64 -23 64 -41 0 -8 -27 -12 -77 -14 -43 -1 -106 -3 -140 -5 -52 -2 -63 1 -63 14 0 22 18 35 60 46 43 11 47 30 25 115 -16 65 -25 81 -32 61 -3 -7 -13 -13 -24 -13 -20 0 -26 -15 -9 -25 16 -10 11 -35 -7 -35 -14 0 -13 -4 6 -24 l23 -25 -53 -60 c-50 -56 -57 -60 -94 -60 -22 1 -52 4 -66 8 -22 5 -25 9 -18 28 7 20 25 27 99 36 20 3 25 60 11 109 -6 20 -40 80 -76 133 -67 100 -84 152 -70 214 8 35 13 38 30 14z m-276 -93 c72 0 80 -16 30 -59 -103 -87 -106 -96 -54 -148 57 -57 50 -63 -70 -63 -99 0 -105 1 -105 20 0 12 10 25 24 31 56 26 53 89 -6 129 -39 27 -67 60 -68 78 0 8 19 12 63 12 34 0 69 4 76 9 9 6 22 6 32 0 10 -5 45 -9 78 -9z m1209 10 c82 0 82 -17 2 -91 -59 -54 -60 -56 -49 -88 6 -18 22 -39 35 -48 13 -8 24 -24 24 -34 0 -17 -9 -19 -105 -19 -121 0 -130 8 -70 64 19 19 35 42 35 52 0 10 -27 43 -60 73 -82 76 -80 89 13 94 39 2 81 2 92 0 11 -1 48 -3 83 -3z"/>
<path d="M606 2023 c4 -54 9 -132 13 -173 l6 -75 150 -5 150 -5 3 -177 2 -178 -105 0 c-58 0 -105 -4 -105 -9 0 -5 13 -39 30 -75 75 -169 207 -319 389 -444 57 -40 108 -72 113 -72 4 0 8 56 8 125 l0 125 -165 0 -165 0 0 175 0 175 165 0 165 0 0 180 0 180 -165 0 -165 0 0 175 0 175 -165 0 -164 0 5 -97z"/>
<path d="M1330 1441 l0 -679 99 -56 c54 -31 103 -56 109 -56 9 0 146 69 190 96 l22 14 0 680 0 680 -210 0 -210 0 0 -679z m225 639 c3 -5 -4 -40 -17 -77 -22 -66 -22 -83 -26 -495 -3 -382 -2 -428 12 -428 14 0 16 42 16 377 0 352 11 553 30 553 18 0 22 -87 27 -499 l5 -433 31 5 c18 3 39 7 47 9 10 2 16 -7 18 -29 3 -29 0 -32 -33 -39 -21 -4 -40 -15 -48 -28 -13 -24 -26 -186 -14 -186 14 0 7 -58 -10 -79 -10 -11 -32 -24 -50 -27 -26 -5 -37 -1 -57 19 -26 26 -37 87 -16 87 6 0 10 33 10 80 0 47 -4 80 -10 80 -5 0 -10 9 -10 20 0 14 -11 22 -40 30 -37 10 -40 14 -40 45 0 33 1 34 26 25 14 -6 34 -10 44 -10 18 0 19 17 23 408 4 410 9 478 47 578 10 25 24 31 35 14z"/>
<path d="M2150 1945 l0 -175 -170 0 -170 0 2 -177 3 -178 165 -5 165 -5 5 -173 5 -173 52 68 c50 65 134 214 148 261 6 22 6 22 -99 22 l-106 0 0 180 0 180 149 0 149 0 6 31 c3 18 9 96 13 175 l6 144 -161 0 -162 0 0 -175z"/>
<path d="M1814 1047 c-2 -7 -3 -66 -2 -130 l3 -118 95 65 c110 75 230 172 230 186 0 16 -319 13 -326 -3z"/>
<path d="M7325 2372 c-22 -10 -59 -37 -83 -60 l-42 -40 0 -304 c1 -404 1 -405 170 -401 163 3 277 86 332 241 26 74 35 230 18 303 -27 116 -97 216 -178 255 -54 27 -167 30 -217 6z"/>
<path d="M3380 2745 l0 -348 113 5 c94 3 121 8 169 30 71 33 134 96 173 174 28 55 30 66 30 174 0 99 -3 121 -22 156 -54 101 -142 141 -333 151 l-130 6 0 -348z"/>
<path d="M3380 2021 c0 -423 0 -424 182 -429 142 -5 186 2 241 39 77 51 124 138 134 250 15 161 -83 329 -236 402 -58 28 -77 31 -193 36 l-128 6 0 -304z"/>
<path d="M8421 2403 c-13 -3 -45 -26 -71 -52 -47 -47 -70 -98 -86 -183 l-6 -38 247 0 248 0 -7 55 c-12 102 -63 178 -143 212 -31 12 -130 16 -182 6z"/>
<path d="M7354 966 c-66 -30 -102 -128 -84 -228 17 -90 72 -144 145 -142 111 2 172 130 130 270 -27 93 -111 136 -191 100z"/>
<path d="M8864 966 c-86 -38 -116 -179 -63 -293 41 -85 149 -105 215 -39 59 59 69 206 19 283 -37 56 -108 76 -171 49z"/>
<path d="M10374 966 c-64 -29 -100 -110 -91 -204 8 -79 42 -132 99 -156 45 -18 48 -19 92 -2 68 26 96 78 96 180 0 120 -41 182 -127 192 -21 2 -52 -2 -69 -10z"/>
<path d="M5190 886 l0 -86 43 0 c48 0 59 6 76 37 30 58 -6 120 -77 130 l-42 6 0 -87z"/>
<path d="M9820 795 c0 -168 1 -175 22 -186 30 -16 113 -4 150 22 109 78 78 293 -48 328 -22 6 -58 11 -81 11 l-43 0 0 -175z"/>
</g>
</svg>